<?xml version="1.0" encoding="UTF-8" standalone="no"?>
<!-- Created with Inkscape (http://www.inkscape.org/) -->

<svg
   width="245.78995mm"
   height="225.77777mm"
   viewBox="0 0 870.90927 799.99997"
   id="svg2"
   version="1.1"
   inkscape:version="1.3.2 (091e20ef0f, 2023-11-25)"
   sodipodi:docname="Fidget_spinner_full.svg"
   xmlns:inkscape="http://www.inkscape.org/namespaces/inkscape"
   xmlns:sodipodi="http://sodipodi.sourceforge.net/DTD/sodipodi-0.dtd"
   xmlns="http://www.w3.org/2000/svg"
   xmlns:svg="http://www.w3.org/2000/svg"
   xmlns:rdf="http://www.w3.org/1999/02/22-rdf-syntax-ns#"
   xmlns:cc="http://creativecommons.org/ns#"
   xmlns:dc="http://purl.org/dc/elements/1.1/">
  <defs
     id="defs4" />
  <sodipodi:namedview
     id="base"
     pagecolor="#ffffff"
     bordercolor="#666666"
     borderopacity="1.0"
     inkscape:pageopacity="0.0"
     inkscape:pageshadow="2"
     inkscape:zoom="22.627417"
     inkscape:cx="629.03777"
     inkscape:cy="253.23262"
     inkscape:document-units="px"
     inkscape:current-layer="layer1"
     showgrid="false"
     inkscape:window-width="1920"
     inkscape:window-height="1052"
     inkscape:window-x="0"
     inkscape:window-y="0"
     inkscape:window-maximized="1"
     fit-margin-top="0"
     fit-margin-left="0"
     fit-margin-right="0"
     fit-margin-bottom="0"
     inkscape:showpageshadow="2"
     inkscape:pagecheckerboard="0"
     inkscape:deskcolor="#d1d1d1" />
  <metadata
     id="metadata7">
    <rdf:RDF>
      <cc:Work
         rdf:about="">
        <dc:format>image/svg+xml</dc:format>
        <dc:type
           rdf:resource="http://purl.org/dc/dcmitype/StillImage" />
        <dc:title />
      </cc:Work>
    </rdf:RDF>
  </metadata>
  <g
     inkscape:label="Layer 1"
     inkscape:groupmode="layer"
     id="layer1"
     transform="translate(-15.331724,-41.857599)">
    <path
       inkscape:connector-curvature="0"
       style="opacity:1;fill:#000000;fill-opacity:1;fill-rule:nonzero;stroke:none;stroke-width:60;stroke-linecap:butt;stroke-linejoin:miter;stroke-miterlimit:4;stroke-dasharray:none;stroke-dashoffset:0;stroke-opacity:1"
       d="M 365.37878,64.741292 C 284.80804,111.29713 256.3768,213.77533 301.2855,295.27584 c 11.27662,20.46484 17.18766,43.46365 17.19278,66.82945 0.005,23.14491 -5.80462,45.92514 -16.91305,66.23006 -23.79063,43.4865 -69.07493,70.89529 -118.63329,71.8963 -93.035422,1.87918 -167.578508,77.75761 -167.600216,170.81239 -0.02201,94.33754 76.476012,170.86577 170.813536,170.81356 59.83747,-0.0331 115.21102,-31.51048 146.23497,-82.67769 12.11455,-19.9803 29.10117,-36.58343 49.33344,-48.27097 20.0409,-11.57699 42.67332,-17.93678 65.81162,-18.46919 49.5575,-1.14031 95.93627,24.37614 121.5847,66.79522 48.14632,79.62758 151.12873,106.24287 231.72518,59.73609 81.71019,-47.14945 109.73481,-151.66374 62.52068,-233.33657 -29.94729,-51.80398 -84.89193,-84.0602 -144.7163,-85.32211 -49.56642,-1.04553 -94.84858,-28.47847 -118.63329,-71.97737 -11.10377,-20.30724 -16.93811,-43.08536 -16.9107,-66.23005 0.0276,-23.35479 5.97291,-46.34549 17.19278,-66.82946 28.7458,-52.48083 28.30862,-116.16937 -1.57278,-168.01154 C 569.67468,76.880027 516.93564,44.791802 458.84609,42.047774 426.15972,40.503739 393.71166,48.36983 365.37878,64.741292 Z m 86.70669,25.246156 c 43.24816,0.4543 83.23448,23.712162 104.96196,61.345342 33.82911,58.59409 13.68226,133.78283 -44.91184,167.61194 -58.59409,33.8291 -133.78283,13.68225 -167.61193,-44.91184 -33.8291,-58.59409 -13.68226,-133.78284 44.91184,-167.61193 17.80253,-10.278169 37.90322,-15.920202 58.45403,-16.405301 1.40137,-0.03298 2.80083,-0.04285 4.19594,-0.02816 z m 0,303.177202 c 45.88128,0.48166 88.30062,25.15124 111.35107,65.07584 35.89141,62.16616 14.52049,141.92243 -47.64566,177.81384 -62.16618,35.8914 -141.92005,14.52048 -177.81148,-47.64568 -35.8914,-62.16603 -14.52283,-141.92243 47.64332,-177.81383 18.88615,-10.90373 40.21125,-16.88737 62.01293,-17.40189 1.48672,-0.0397 2.96977,-0.0433 4.44982,-0.0277 z m -0.18806,18.05083 c -1.27557,-0.0144 -2.55483,0 -3.83628,0.0253 -18.77869,0.44326 -37.14444,5.5961 -53.41185,14.98794 -53.71665,31.01309 -72.0487,99.43634 -41.03559,153.15291 31.01312,53.7167 99.43396,72.05108 153.15063,41.03799 53.71665,-31.01309 72.05105,-99.43646 41.03794,-153.15303 C 527.9341,432.85395 491.44015,411.62794 451.89741,411.215 Z M 187.44507,548.36034 c 43.24818,0.45433 83.23452,23.71217 104.96196,61.34534 33.82908,58.59416 13.68224,133.78047 -44.91184,167.60961 C 188.90111,811.14443 113.71236,790.99751 79.88327,732.40346 46.054198,673.80942 66.201051,598.62299 124.7951,564.79385 c 17.80253,-10.27812 37.90322,-15.92008 58.45403,-16.40523 1.40139,-0.0289 2.80084,-0.0421 4.19594,-0.0289 z m 529.28314,0 c 43.24804,0.45433 83.23217,23.71217 104.95961,61.34534 33.82908,58.59416 13.68222,133.78047 -44.91183,167.60961 -58.59409,33.82914 -133.78049,13.68222 -167.60959,-44.91183 -33.82907,-58.59404 -13.68223,-133.78047 44.91184,-167.60961 17.80253,-10.27812 37.90321,-15.92008 58.45403,-16.40523 1.40138,-0.0289 2.80085,-0.0421 4.19594,-0.0289 z m -529.47354,18.05312 c -1.19064,-0.012 -2.38394,0 -3.58007,0.0241 -17.52781,0.41377 -34.66912,5.22481 -49.85294,13.99116 -50.144563,28.95071 -67.254901,92.80411 -38.304112,142.94869 28.950802,50.14459 92.806502,67.25497 142.951092,38.30415 50.14457,-28.95082 67.25491,-92.80423 38.30412,-142.94881 -18.54517,-32.12119 -52.60845,-51.93341 -89.51809,-52.31878 z m 529.28313,0 c -1.19063,-0.012 -2.38393,0 -3.58006,0.0241 -17.5278,0.41377 -34.66914,5.22481 -49.85294,13.99116 -50.14457,28.95071 -67.25489,92.80411 -38.30411,142.94869 28.95081,50.14459 92.80412,67.25497 142.94874,38.30415 50.14454,-28.95082 67.2549,-92.80423 38.30411,-142.94881 -18.54515,-32.12119 -52.60623,-51.93341 -89.51574,-52.31878 z m -531.62675,52.34706 c 19.12025,-0.45118 36.96179,9.57114 46.52439,26.13466 14.44111,25.01322 5.87123,56.99739 -19.14147,71.43908 -25.01367,14.44145 -56.99826,5.87044 -71.4391,-19.14377 -14.44111,-25.01322 -5.87124,-56.99738 19.14146,-71.43908 7.58816,-4.38064 16.15532,-6.78452 24.91472,-6.99089 z m 529.2808,0 c 19.12061,-0.45252 36.96314,9.56898 46.52674,26.13237 14.44227,25.01435 5.8711,57.00042 -19.14383,71.44137 -25.01368,14.44146 -56.99827,5.87044 -71.43911,-19.14377 -14.44071,-25.01384 -5.86973,-56.9982 19.14383,-71.43908 7.58746,-4.38026 16.15377,-6.78413 24.91237,-6.99089 z"
       id="circle4252"
       sodipodi:nodetypes="sssssssssssssssssssscssssccccsssscccccsssscccssssccccsssscccccssssccccsssscccscccccccscc" />
    <circle
       style="fill:none;stroke:#ff0000;stroke-width:0.285792;stroke-opacity:1"
       id="path1"
       cx="450.78873"
       cy="212.60628"
       r="104.79044" />
    <circle
       style="fill:none;stroke:#ff0000;stroke-width:0.285792;stroke-opacity:1"
       id="path1-6"
       cx="450.73422"
       cy="523.32593"
       r="112.5" />
    <path
       style="fill:none;stroke:#ff0000;stroke-width:0.285792;stroke-opacity:1"
       id="path1-3"
       sodipodi:type="arc"
       sodipodi:cx="212.64406"
       sodipodi:cy="-450.79135"
       sodipodi:rx="170.625"
       sodipodi:ry="170.625"
       sodipodi:start="1.0471976"
       sodipodi:end="5.2359878"
       sodipodi:arc-type="arc"
       d="m 297.95655,-303.02576 a 170.625,170.625 0 0 1 -216.01883,-38.08996 170.625,170.625 0 0 1 1e-5,-219.35127 170.625,170.625 0 0 1 216.01883,-38.08994"
       sodipodi:open="true"
       transform="rotate(90)" />
    <circle
       style="fill:none;stroke:#ff0000;stroke-width:0.285792;stroke-opacity:1"
       id="path1-7"
       cx="223.43747"
       cy="-955.12756"
       r="104.79044"
       transform="rotate(120)" />
    <path
       style="fill:none;stroke:#ff0000;stroke-width:0.285792;stroke-opacity:1"
       id="path1-3-5"
       sodipodi:type="arc"
       sodipodi:cx="-955.08978"
       sodipodi:cy="-223.44009"
       sodipodi:rx="170.625"
       sodipodi:ry="170.625"
       sodipodi:start="1.0471976"
       sodipodi:end="5.2359878"
       sodipodi:arc-type="arc"
       d="m -869.77729,-75.674505 a 170.625,170.625 0 0 1 -216.01881,-38.089955 170.625,170.625 0 0 1 0,-219.35128 170.625,170.625 0 0 1 216.01882,-38.08993"
       sodipodi:open="true"
       transform="rotate(-150)" />
    <circle
       style="fill:none;stroke:#ff0000;stroke-width:0.285792;stroke-opacity:1"
       id="path1-7-3"
       cx="-674.16248"
       cy="-174.3399"
       r="104.79044"
       transform="rotate(-120)" />
    <path
       style="fill:none;stroke:#ff0000;stroke-width:0.285792;stroke-opacity:1"
       id="path1-3-5-5"
       sodipodi:type="arc"
       sodipodi:cx="-174.30212"
       sodipodi:cy="674.15985"
       sodipodi:rx="170.625"
       sodipodi:ry="170.625"
       sodipodi:start="1.0471976"
       sodipodi:end="5.2359878"
       sodipodi:arc-type="arc"
       d="m -88.989631,821.92544 a 170.625,170.625 0 0 1 -216.018829,-38.08996 170.625,170.625 0 0 1 1e-5,-219.35127 170.625,170.625 0 0 1 216.018832,-38.08994"
       sodipodi:open="true"
       transform="rotate(-30)" />
    <path
       style="fill:none;stroke:#ff0000;stroke-width:1.18233;stroke-opacity:1"
       id="path2"
       sodipodi:type="arc"
       sodipodi:cx="830.9187"
       sodipodi:cy="-450.78641"
       sodipodi:rx="138.51562"
       sodipodi:ry="138.51562"
       sodipodi:start="2.0943951"
       sodipodi:end="4.1887902"
       sodipodi:arc-type="arc"
       d="m 761.66089,-330.82836 a 138.51562,138.51562 0 0 1 -69.25781,-119.95805 138.51562,138.51562 0 0 1 69.25781,-119.95805"
       sodipodi:open="true"
       transform="rotate(90)" />
    <path
       style="fill:none;stroke:#ff0000;stroke-width:1.18233;stroke-opacity:1"
       id="path2-6"
       sodipodi:type="arc"
       sodipodi:cx="-336.85187"
       sodipodi:cy="-223.3197"
       sodipodi:rx="138.51562"
       sodipodi:ry="138.51562"
       sodipodi:start="2.0943951"
       sodipodi:end="4.1887902"
       sodipodi:arc-type="arc"
       d="m -406.10968,-103.36165 a 138.51562,138.51562 0 0 1 -69.25781,-119.95805 138.51562,138.51562 0 0 1 69.25781,-119.95805"
       sodipodi:open="true"
       transform="rotate(-150)" />
    <path
       style="fill:none;stroke:#ff0000;stroke-width:1.18233;stroke-opacity:1"
       id="path2-6-2"
       sodipodi:type="arc"
       sodipodi:cx="443.83383"
       sodipodi:cy="674.10834"
       sodipodi:rx="138.51562"
       sodipodi:ry="138.51562"
       sodipodi:start="2.0943951"
       sodipodi:end="4.1887902"
       sodipodi:arc-type="arc"
       d="M 374.57602,794.06639 A 138.51562,138.51562 0 0 1 305.31821,674.10834 138.51562,138.51562 0 0 1 374.57602,554.15029"
       sodipodi:open="true"
       transform="rotate(-30)" />
  </g>
</svg>
