<?xml version="1.0" encoding="UTF-8" standalone="no"?>
<!-- Created with Inkscape (http://www.inkscape.org/) -->

<svg
   width="245.78995mm"
   height="225.77777mm"
   viewBox="0 0 870.90927 799.99997"
   id="svg2"
   version="1.1"
   inkscape:version="1.3.2 (091e20ef0f, 2023-11-25)"
   sodipodi:docname="Fidget_spinner.svg"
   xmlns:inkscape="http://www.inkscape.org/namespaces/inkscape"
   xmlns:sodipodi="http://sodipodi.sourceforge.net/DTD/sodipodi-0.dtd"
   xmlns="http://www.w3.org/2000/svg"
   xmlns:svg="http://www.w3.org/2000/svg"
   xmlns:rdf="http://www.w3.org/1999/02/22-rdf-syntax-ns#"
   xmlns:cc="http://creativecommons.org/ns#"
   xmlns:dc="http://purl.org/dc/elements/1.1/">
  <defs
     id="defs4" />
  <sodipodi:namedview
     id="base"
     pagecolor="#ffffff"
     bordercolor="#666666"
     borderopacity="1.0"
     inkscape:pageopacity="0.0"
     inkscape:pageshadow="2"
     inkscape:zoom="1.8868696"
     inkscape:cx="318.51698"
     inkscape:cy="480.16037"
     inkscape:document-units="px"
     inkscape:current-layer="layer1"
     showgrid="false"
     inkscape:window-width="2256"
     inkscape:window-height="1476"
     inkscape:window-x="0"
     inkscape:window-y="0"
     inkscape:window-maximized="1"
     fit-margin-top="0"
     fit-margin-left="0"
     fit-margin-right="0"
     fit-margin-bottom="0"
     inkscape:showpageshadow="2"
     inkscape:pagecheckerboard="0"
     inkscape:deskcolor="#d1d1d1" />
  <metadata
     id="metadata7">
    <rdf:RDF>
      <cc:Work
         rdf:about="">
        <dc:format>image/svg+xml</dc:format>
        <dc:type
           rdf:resource="http://purl.org/dc/dcmitype/StillImage" />
        <dc:title />
      </cc:Work>
    </rdf:RDF>
  </metadata>
  <g
     inkscape:label="Layer 1"
     inkscape:groupmode="layer"
     id="layer1"
     transform="translate(-15.331724,-41.857599)">
    <path
       inkscape:connector-curvature="0"
       style="opacity:1;fill:#000000;fill-opacity:1;fill-rule:nonzero;stroke:none;stroke-width:60;stroke-linecap:butt;stroke-linejoin:miter;stroke-miterlimit:4;stroke-dasharray:none;stroke-dashoffset:0;stroke-opacity:1"
       d="M 365.37878,64.741292 C 284.80804,111.29713 256.3768,213.77533 301.2855,295.27584 c 11.27662,20.46484 17.18766,43.46365 17.19278,66.82945 0.005,23.14491 -5.80462,45.92514 -16.91305,66.23006 -23.79063,43.4865 -69.07493,70.89529 -118.63329,71.8963 -93.035422,1.87918 -167.578508,77.75761 -167.600216,170.81239 -0.02201,94.33754 76.476012,170.86577 170.813536,170.81356 59.83747,-0.0331 115.21102,-31.51048 146.23497,-82.67769 12.11455,-19.9803 29.10117,-36.58343 49.33344,-48.27097 20.0409,-11.57699 42.67332,-17.93678 65.81162,-18.46919 49.5575,-1.14031 95.93627,24.37614 121.5847,66.79522 48.14632,79.62758 151.12873,106.24287 231.72518,59.73609 81.71019,-47.14945 109.73481,-151.66374 62.52068,-233.33657 -29.94729,-51.80398 -84.89193,-84.0602 -144.7163,-85.32211 -49.56642,-1.04553 -94.84858,-28.47847 -118.63329,-71.97737 -11.10377,-20.30724 -16.93811,-43.08536 -16.9107,-66.23005 0.0276,-23.35479 5.97291,-46.34549 17.19278,-66.82946 28.7458,-52.48083 28.30862,-116.16937 -1.57278,-168.01154 C 569.67468,76.880027 516.93564,44.791802 458.84609,42.047774 426.15972,40.503739 393.71166,48.36983 365.37878,64.741292 Z"
       id="circle4252"
       sodipodi:nodetypes="ssssssssssssssssssss" />
  </g>
</svg>
